<svg width="62" height="58" viewBox="0 0 62 58" fill="none" xmlns="http://www.w3.org/2000/svg">
<path d="M0.0404471 24.3923L0.0372308 22.4609C0.0324911 19.6145 1.85917 17.7308 4.73095 17.726L9.28006 17.7185L18.8596 1.48831C19.7719 -0.0380526 21.4489 -0.244158 22.7462 0.439862C24.1198 1.17458 24.7831 2.74915 23.8963 4.3263L16.2181 17.7069L45.4442 17.6582L37.7215 4.30328C36.8294 2.72909 37.4875 1.15232 38.8587 0.413032C40.2045 -0.249975 41.8822 -0.0240423 42.7487 1.44853L52.3822 17.6467L56.9059 17.6391C59.7777 17.6344 61.6361 19.5119 61.6408 22.3583L61.644 24.2897C61.6488 27.1361 59.7966 28.969 56.9248 28.9738L4.74983 29.0607C1.87804 29.0655 0.0451868 27.2387 0.0404471 24.3923ZM17.4024 57.3763C10.7185 57.3874 8.75487 53.3499 7.9351 49.4375L4.50208 32.8986L57.2362 32.8108L53.8328 49.361C53.0261 53.2762 51.0759 57.3202 44.392 57.3314L17.4024 57.3763ZM42.3761 52.379C43.4692 52.5551 44.3831 51.9436 44.5847 50.9013L46.6747 39.2836C46.8508 38.2413 46.1632 37.3784 44.9938 37.1516C43.8753 37.001 42.9614 37.587 42.7852 38.6293L40.7207 50.2978C40.5445 51.3401 41.2067 52.1776 42.3761 52.379ZM19.4018 52.4172C20.5705 52.212 21.2299 51.3722 21.0503 50.3305L18.9469 38.669C18.7673 37.6273 17.8514 37.0443 16.7334 37.1986C15.5647 37.4293 14.88 38.2691 15.0596 39.3108L17.1883 50.9469C17.3934 51.9885 18.2585 52.597 19.4018 52.4172ZM34.701 52.3409C35.8193 52.3899 36.6567 51.6769 36.7312 50.6094L37.4746 39.1718C37.5491 38.1043 36.7853 37.3177 35.6416 37.2434C34.4724 37.1437 33.6604 37.9075 33.5859 38.975L32.8425 50.4126C32.7681 51.4801 33.5572 52.2666 34.701 52.3409ZM27.1276 52.3535C28.2457 52.2754 29.0322 51.4863 28.9542 50.419L28.1727 38.984C28.0947 37.9167 27.2802 37.1557 26.1113 37.2593C24.9932 37.3374 24.2067 38.1265 24.2847 39.1938L25.0662 50.6288C25.1442 51.6961 25.984 52.4063 27.1276 52.3535Z" fill="url(#paint0_linear_14665_206)"/>
<defs>
<linearGradient id="paint0_linear_14665_206" x1="30.8573" y1="-1.94174" x2="30.9607" y2="60.1549" gradientUnits="userSpaceOnUse">
<stop stop-color="#FFD119"/>
<stop offset="1" stop-color="#E69625"/>
</linearGradient>
</defs>
</svg>
